<svg id="Layer_1" data-name="Layer 1" xmlns="http://www.w3.org/2000/svg" viewBox="0 0 99.18 100.73"><defs><style>.cls-1{fill:#43756c;}.cls-2{fill:#fff;}</style></defs><g id="Group_199" data-name="Group 199"><ellipse id="Ellipse_60" data-name="Ellipse 60" class="cls-1" cx="49.59" cy="50.36" rx="49.59" ry="50.36"/><g id="blood-drop"><g id="Group_101" data-name="Group 101"><g id="Group_99" data-name="Group 99"><g id="Group_97" data-name="Group 97"><path id="Path_85" data-name="Path 85" class="cls-2" d="M195.44,192.71a18.48,18.48,0,1,1-36.95.59v-.59c0-8.52,12.51-24.32,16.94-29.65a2,2,0,0,1,2.81-.26,2.13,2.13,0,0,1,.26.26C182.93,168.39,195.44,184.19,195.44,192.71Z" transform="translate(-130.5 -130)"/><path id="Path_86" data-name="Path 86" class="cls-2" d="M178.5,163.06a2,2,0,0,0-1.53-.72v49.12a18.6,18.6,0,0,0,18.47-18.75h0C195.44,184.19,182.93,168.39,178.5,163.06Z" transform="translate(-130.5 -130)"/></g><g id="Group_98" data-name="Group 98"><path id="Path_87" data-name="Path 87" class="cls-1" d="M181.15,187.51h-2.37v-2.37a1.82,1.82,0,0,0-3.64,0v2.37h-2.36a1.82,1.82,0,1,0,0,3.64h2.37v2.36a1.82,1.82,0,0,0,3.64,0v-2.36h2.36a1.82,1.82,0,0,0,0-3.64Z" transform="translate(-130.5 -130)"/><path id="Path_88" data-name="Path 88" class="cls-1" d="M181.15,187.51h-2.36v-2.37a1.83,1.83,0,0,0-1.82-1.82v12a1.82,1.82,0,0,0,1.82-1.82v-2.36h2.36a1.82,1.82,0,0,0,0-3.64Z" transform="translate(-130.5 -130)"/></g></g><g id="Group_100" data-name="Group 100"><path id="Path_89" data-name="Path 89" class="cls-2" d="M200.34,160.34a7.24,7.24,0,0,1-14.48,0c0-2.8,3.56-7.64,5.68-10.29a2,2,0,0,1,2.81-.31,2.27,2.27,0,0,1,.31.31C196.79,152.7,200.34,157.54,200.34,160.34Z" transform="translate(-130.5 -130)"/><path id="Path_90" data-name="Path 90" class="cls-2" d="M194.66,150.05a2,2,0,0,0-1.55-.75v18.28a7.25,7.25,0,0,0,7.23-7.24c0-2.8-3.55-7.64-5.68-10.29Z" transform="translate(-130.5 -130)"/></g></g></g></g></svg>