<svg id="Layer_1" data-name="Layer 1" xmlns="http://www.w3.org/2000/svg" viewBox="0 0 112.68 114.44"><defs><style>.cls-1{fill:#43756c;}.cls-2{fill:#fff;}</style></defs><g id="Group_198" data-name="Group 198"><ellipse id="Ellipse_61" data-name="Ellipse 61" class="cls-1" cx="56.34" cy="57.22" rx="56.34" ry="57.22"/><g id="height"><path id="Path_83" data-name="Path 83" class="cls-2" d="M179.24,147.82v7.08H193.4V162H179.24v7.08h7.08v7.09h-7.08v7.08H193.4v7.08H179.24v7.08h7.08v7.08h-7.08v7.08a3.53,3.53,0,0,0,3.54,3.54H204a3.53,3.53,0,0,0,3.54-3.54V147.82a3.54,3.54,0,0,0-3.54-3.54H182.78A3.54,3.54,0,0,0,179.24,147.82Z" transform="translate(-124 -122.29)"/><path id="Path_84" data-name="Path 84" class="cls-2" d="M150.91,158.44l10.63-12.09,10.62,12.09h-7.08v56.65H158V158.44Z" transform="translate(-124 -122.29)"/></g></g></svg>