<svg id="Layer_1" data-name="Layer 1" xmlns="http://www.w3.org/2000/svg" viewBox="0 0 149.88 360"><defs><style>.cls-1,.cls-3{fill:#43756c;}.cls-2,.cls-3{isolation:isolate;}.cls-3{font-size:69.78px;font-family:Avenir-Medium, Avenir;font-weight:500;}</style></defs><g id="Group_245" data-name="Group 245"><g id="question"><g id="Group_55" data-name="Group 55"><g id="Group_54" data-name="Group 54"><g id="Group_53" data-name="Group 53"><path id="Path_16" data-name="Path 16" class="cls-1" d="M186.36,203.85A10.66,10.66,0,1,0,197,214.51h0A10.66,10.66,0,0,0,186.36,203.85Z" transform="translate(-115.28 0)"/><path id="Path_18" data-name="Path 18" class="cls-1" d="M196.86,1c-36.36-6.64-69,22.15-69,59.89A14.64,14.64,0,0,0,157.11,62c0-.38,0-.75,0-1.13a29.62,29.62,0,0,1,34.68-29.92,30.09,30.09,0,0,1,23.36,24.26,30.88,30.88,0,0,1-14.69,32.32,60.79,60.79,0,0,0-28.72,53.31v26.52A14.64,14.64,0,0,0,201,168.47c0-.38,0-.76,0-1.13V140.82a30.36,30.36,0,0,1,13.58-26.66A61.72,61.72,0,0,0,244,50,59.94,59.94,0,0,0,196.86,1Z" transform="translate(-115.28 0)"/></g></g></g></g><g id="Help" class="cls-2"><text class="cls-3" transform="translate(0 331.46)">Help</text></g></g></svg>