<svg id="Layer_1" data-name="Layer 1" xmlns="http://www.w3.org/2000/svg" viewBox="0 0 227.37 360"><defs><style>.cls-1,.cls-3{fill:#43756c;}.cls-1{stroke:#43756c;stroke-width:5.15px;}.cls-2,.cls-3{isolation:isolate;}.cls-3{font-size:68.64px;font-family:Avenir-Black, Avenir;font-weight:800;}</style></defs><g id="Group_241" data-name="Group 241"><path id="house" class="cls-1" d="M285.82,97,266.77,78.69V25.15a8.68,8.68,0,0,0-8.68-8.68H223.36a8.68,8.68,0,0,0-8.68,8.68v3.17L195.4,9.5l-.27-.25a26,26,0,0,0-34.72-.08l-.24.23L68.89,97a8.71,8.71,0,0,0,6,15h13V190.1a34.74,34.74,0,0,0,34.73,34.73h31.25a8.67,8.67,0,0,0,8.68-8.68V154.08H193v62.07a8.68,8.68,0,0,0,8.68,8.68h30.39a34.76,34.76,0,0,0,34.73-34.73,8.69,8.69,0,0,0-17.37,0,17.38,17.38,0,0,1-17.36,17.37H210.34V145.39a8.68,8.68,0,0,0-8.68-8.68H153.91a8.68,8.68,0,0,0-8.68,8.68h0v62.08H122.66A17.38,17.38,0,0,1,105.3,190.1V112H249.41V146.7a8.68,8.68,0,0,0,17.36,0V112h13a8.69,8.69,0,0,0,6-14.94ZM96.49,94.61l75.58-72.55a8.66,8.66,0,0,1,11.36,0l33.89,33.06A8.67,8.67,0,0,0,232,48.91V33.84h17.37V82.37a8.66,8.66,0,0,0,2.66,6.25l6.2,6Z" transform="translate(-63.68 0)"/><g id="Home" class="cls-2"><text class="cls-3" transform="translate(19.7 328.63)">Home</text></g></g></svg>