<svg id="Layer_1" data-name="Layer 1" xmlns="http://www.w3.org/2000/svg" viewBox="0 0 272.59 360"><defs><style>.cls-1,.cls-3{fill:#43756c;}.cls-2,.cls-3{isolation:isolate;}.cls-3{font-size:84.03px;font-family:Avenir-Medium, Avenir;font-weight:500;}</style></defs><g id="Group_246" data-name="Group 246"><g id="logout"><g id="Group_58" data-name="Group 58"><g id="Group_57" data-name="Group 57"><path id="Path_24" data-name="Path 24" class="cls-1" d="M185.86,182.5H111.2a8.3,8.3,0,0,1-8.3-8.29V24.88a8.3,8.3,0,0,1,8.3-8.29h74.66a8.3,8.3,0,0,0,0-16.59H111.2A24.92,24.92,0,0,0,86.31,24.88V174.19a24.92,24.92,0,0,0,24.89,24.89h74.66a8.3,8.3,0,0,0,0-16.59Z" transform="translate(-52.43)"/></g></g><g id="Group_60" data-name="Group 60"><g id="Group_59" data-name="Group 59"><path id="Path_25" data-name="Path 25" class="cls-1" d="M283.59,93.66,233.17,43.88A8.3,8.3,0,0,0,221.52,55.7l36,35.57H161a8.3,8.3,0,0,0,0,16.59h96.58l-36,35.57a8.29,8.29,0,1,0,11.65,11.81h0l50.42-49.77a8.29,8.29,0,0,0,.08-11.73Z" transform="translate(-52.43)"/></g></g></g><g id="Logout-2" class="cls-2"><text class="cls-3" transform="translate(0 325.63)">Logout</text></g></g></svg>