<svg id="Layer_1" data-name="Layer 1" xmlns="http://www.w3.org/2000/svg" viewBox="0 0 359.51 321"><defs><style>.cls-1,.cls-4{fill:#43756c;}.cls-2{fill:red;}.cls-3,.cls-4{isolation:isolate;}.cls-4{font-size:62.22px;font-family:Avenir-Medium, Avenir;font-weight:500;}</style></defs><g id="Group_242" data-name="Group 242"><path id="daily-health-app" class="cls-1" d="M258.47,53.36a52.36,52.36,0,0,0-38-14.22,54.09,54.09,0,0,0-45.75,23.19,54.5,54.5,0,0,0-3.54-4.53C155.09,37,112.91,31,90.61,53.36,80.15,63.78,74.85,79,74.85,98.59c-2.13,37.15,54.61,94.71,83.81,116.57a25.81,25.81,0,0,0,31.75,0c4.51-3.5,13.77-11,25-21.68a7.79,7.79,0,1,0-10.71-11.31c-10.8,10.23-19.61,17.36-23.9,20.7a10.25,10.25,0,0,1-12.61,0C151.4,190,121.84,162,106.68,139.22h20a7.77,7.77,0,0,0,7-4.45l7.11-15,20,45.53a7.79,7.79,0,0,0,7.11,4.67h0a7.79,7.79,0,0,0,7.11-4.62l15.91-35.67,10.13,20a7.78,7.78,0,0,0,13.69.39l6.32-10.91h21q-5.06,7.32-11.66,15.28a7.79,7.79,0,0,0,12,9.94c21.39-25.8,31.78-47.34,31.78-65.85,0-19.6-5.3-34.81-15.75-45.23Zm-41.88,70.28a7.8,7.8,0,0,0-6.74,3.89l-1.37,2.36-11-21.83a7.78,7.78,0,0,0-14.06.34L168,143l-19.8-45A7.77,7.77,0,0,0,134,97.72l-12.3,25.92H97.44a57.86,57.86,0,0,1-7-25c0-36.26,20.75-43.87,38.16-43.87a39.27,39.27,0,0,1,38.48,26.35,7.75,7.75,0,0,0,14.86.24,40.83,40.83,0,0,1,38.56-26.6c17.41,0,38.16,7.62,38.16,43.88a57,57,0,0,1-7.14,25Z" transform="translate(-0.55 -19)"/><ellipse id="Ellipse_56" data-name="Ellipse 56" class="cls-2" cx="257.53" cy="38.89" rx="36.94" ry="38.89"/><g id="Notifications" class="cls-3"><text class="cls-4" transform="translate(0 295.55)">Notifications</text></g></g></svg>