<svg id="Layer_1" data-name="Layer 1" xmlns="http://www.w3.org/2000/svg" viewBox="0 0 131.93 131.96"><defs><style>.cls-1{fill:#d8e3e1;}.cls-2{fill:#43756c;}</style></defs><g id="Group_73" data-name="Group 73"><g id="test"><path id="Path_32" data-name="Path 32" class="cls-1" d="M248.4,181.58a66,66,0,0,1-109.19,49.84q-2.31-2-4.43-4.23c-.6-.62-1.18-1.25-1.75-1.89a66,66,0,0,1,0-87.44c.57-.64,1.15-1.27,1.75-1.89a66,66,0,0,1,13.43-10.8l0,0c.77-.47,1.55-.92,2.33-1.35a66.09,66.09,0,0,1,63.68,0c.78.43,1.56.88,2.33,1.35a66,66,0,0,1,31.8,56.44Z" transform="translate(-116.46 -115.61)"/></g></g><g id="Group_243" data-name="Group 243"><path id="user" class="cls-2" d="M220.72,208.47a3,3,0,0,0-5.92,1.11l0,.12a3.15,3.15,0,0,1-.64,2.64,3.06,3.06,0,0,1-2.4,1.14H153.06a3.08,3.08,0,0,1-2.41-1.14,3.17,3.17,0,0,1-.62-2.64,33.23,33.23,0,0,1,31.6-26.31h1.6a33.09,33.09,0,0,1,26.7,14.68,3,3,0,0,0,5-3.34h0a39.09,39.09,0,0,0-20.27-15.4,20.44,20.44,0,1,0-24.47,0,39.12,39.12,0,0,0-26.05,29.14,9.13,9.13,0,0,0,7.06,10.82,9,9,0,0,0,1.87.2H211.8a9.15,9.15,0,0,0,9.12-9.17,9.6,9.6,0,0,0-.19-1.85ZM168,163a14.43,14.43,0,1,1,15.16,14.41H181.7A14.43,14.43,0,0,1,168,163Z" transform="translate(-116.46 -115.61)"/></g></svg>