<svg id="Layer_1" data-name="Layer 1" xmlns="http://www.w3.org/2000/svg" viewBox="0 0 226.71 359.92"><defs><style>.cls-1,.cls-3{fill:#43756c;}.cls-2,.cls-3{isolation:isolate;}.cls-3{font-size:69.76px;font-family:Avenir-Medium, Avenir;font-weight:500;}.cls-4{letter-spacing:-0.02em;}.cls-5{letter-spacing:0em;}</style></defs><g id="Group_243" data-name="Group 243"><path id="user" class="cls-1" d="M295.14,194.37A8.86,8.86,0,1,0,277.8,198a9.23,9.23,0,0,1-1.88,7.75,9,9,0,0,1-7.08,3.37h-173a9,9,0,0,1-7.08-3.37A9.23,9.23,0,0,1,86.92,198,97.85,97.85,0,0,1,180,120.5c.78,0,1.56,0,2.35,0s1.57,0,2.36,0a97.39,97.39,0,0,1,78.67,43.24,8.85,8.85,0,0,0,14.71-9.86,115.09,115.09,0,0,0-59.69-45.34,60.22,60.22,0,1,0-72.08,0,115.18,115.18,0,0,0-76.75,85.83,26.91,26.91,0,0,0,26.3,32.45h173a26.94,26.94,0,0,0,26.3-32.45Zm-155.29-134a42.51,42.51,0,1,1,44.66,42.45h-4.29A42.56,42.56,0,0,1,139.85,60.33Z" transform="translate(-69 -0.08)"/><g id="Profile" class="cls-2"><text class="cls-3" transform="translate(14.12 331.39)">P<tspan class="cls-4" x="41.36" y="0">r</tspan><tspan class="cls-5" x="65.92" y="0">ofile</tspan></text></g></g></svg>