<svg id="Layer_1" data-name="Layer 1" xmlns="http://www.w3.org/2000/svg" viewBox="0 0 131.93 131.96"><defs><style>.cls-1{fill:#d8e3e1;}.cls-2{fill:#cdb795;}.cls-3{fill:#f5dbb2;}.cls-4{fill:#fff;}.cls-5{fill:#43756c;}.cls-6{fill:#303030;}.cls-7{fill:#ffe3c1;}.cls-8{fill:#ffe4b9;}</style></defs><g id="Group_73" data-name="Group 73"><g id="test"><path id="Path_32" data-name="Path 32" class="cls-1" d="M248.4,181.58a66,66,0,0,1-109.19,49.84q-2.31-2-4.43-4.23c-.6-.62-1.18-1.25-1.75-1.89a66,66,0,0,1,0-87.44c.57-.64,1.15-1.27,1.75-1.89a66,66,0,0,1,13.43-10.8l0,0c.77-.47,1.55-.92,2.33-1.35a66.09,66.09,0,0,1,63.68,0c.78.43,1.56.88,2.33,1.35a66,66,0,0,1,31.8,56.44Z" transform="translate(-116.46 -115.61)"/></g></g><g id="medical-record"><g id="Group_74" data-name="Group 74"><path id="Path_48" data-name="Path 48" class="cls-2" d="M225.74,160.42v19l-16.24,18.1-.72-24.7,6.1-12.4Z" transform="translate(-116.46 -115.61)"/><path id="Path_49" data-name="Path 49" class="cls-3" d="M159.27,163.14l-7.69,16.27,2.82,25.33-13.67,18.09V149.57h10.85Z" transform="translate(-116.46 -115.61)"/><path id="Path_50" data-name="Path 50" class="cls-4" d="M214.89,136v48.84H183.23l-7.36-26.11L183.23,136Z" transform="translate(-116.46 -115.61)"/><path id="Path_51" data-name="Path 51" class="cls-4" d="M151.58,136h31.65v48.84H151.58Z" transform="translate(-116.46 -115.61)"/><path id="Path_52" data-name="Path 52" class="cls-5" d="M189.57,174.2v7.93h-6.34L181,172.82l2.28-8.32,3.2,2.8A9.18,9.18,0,0,1,189.57,174.2Z" transform="translate(-116.46 -115.61)"/><path id="Path_53" data-name="Path 53" class="cls-5" d="M183.23,164.5v17.63h-20.8V174.2a9.17,9.17,0,0,1,3.13-6.9l5.8-5.07h9.27Z" transform="translate(-116.46 -115.61)"/><path id="Path_54" data-name="Path 54" class="cls-6" d="M190.47,146.86h15.37v5.42H190.47Z" transform="translate(-116.46 -115.61)"/><path id="Path_55" data-name="Path 55" class="cls-6" d="M195.9,157.71h9.94v5.43H195.9Z" transform="translate(-116.46 -115.61)"/><path id="Path_56" data-name="Path 56" class="cls-7" d="M185,155.9v3.62a8.93,8.93,0,0,1-1.81,5.42L181,158.45l2.28-8A8.93,8.93,0,0,1,185,155.9Z" transform="translate(-116.46 -115.61)"/><path id="Path_57" data-name="Path 57" class="cls-7" d="M183.23,150.48v14.46A9,9,0,0,1,167,159.52V155.9a9,9,0,0,1,16.28-5.42Z" transform="translate(-116.46 -115.61)"/><path id="Path_58" data-name="Path 58" class="cls-3" d="M232.87,179.42l-11.36,43.41H183.23l-5.5-19.54,5.5-23.87Z" transform="translate(-116.46 -115.61)"/><path id="Path_59" data-name="Path 59" class="cls-8" d="M183.23,179.42v43.41h-42.5l10.85-43.41Z" transform="translate(-116.46 -115.61)"/></g></g></svg>