<svg id="Layer_1" data-name="Layer 1" xmlns="http://www.w3.org/2000/svg" viewBox="0 0 147.06 151.73"><defs><style>.cls-1{fill:#43756c;}.cls-2{fill:#fff;}</style></defs><g id="Group_202" data-name="Group 202"><ellipse id="Ellipse_59" data-name="Ellipse 59" class="cls-1" cx="73.53" cy="75.86" rx="73.53" ry="75.86"/><g id="weighing-scale"><path id="Path_81" data-name="Path 81" class="cls-2" d="M180.31,144.83h0A41.31,41.31,0,0,0,149,159.7a2.76,2.76,0,0,0,0,3.62l15,17.27a2.72,2.72,0,0,0,2.08.95h28.37a2.76,2.76,0,0,0,2.09-.95l15-17.27a2.76,2.76,0,0,0,0-3.62A41.29,41.29,0,0,0,180.31,144.83ZM178.69,176l1.62-3.5,1.62,3.5Zm14.55,0H188l-5.2-11.25a2.76,2.76,0,0,0-5,0L172.61,176h-5.23l-12.6-14.47a40.49,40.49,0,0,1,5-4.35l2.38,2.85a2.76,2.76,0,0,0,4.24-3.54l-1.89-2.26a34.08,34.08,0,0,1,13-3.8v3.4a2.76,2.76,0,0,0,5.52,0v-3.4a34.08,34.08,0,0,1,13,3.8l-1.88,2.26a2.76,2.76,0,1,0,4.23,3.54l2.38-2.85a39.6,39.6,0,0,1,5,4.34Z" transform="translate(-106.12 -104)"/><path id="Path_82" data-name="Path 82" class="cls-2" d="M219,139.87a20.24,20.24,0,0,0-15-6.67H156.6a20.19,20.19,0,0,0-20.19,20.17c0,.7,0,1.4.11,2.1l5.58,53.69a20.14,20.14,0,0,0,20.08,18.09h36.27a20.14,20.14,0,0,0,20.07-18.09l5.58-53.69a20.21,20.21,0,0,0-5.08-15.6Zm-.41,15L213,208.58a14.63,14.63,0,0,1-14.58,13.15H183.07V205.17a2.76,2.76,0,0,0-5.52,0h0v16.55H162.18a14.63,14.63,0,0,1-14.58-13.15L142,154.89a14.66,14.66,0,0,1,13.06-16.1c.51,0,1-.08,1.52-.08H204a14.66,14.66,0,0,1,14.66,14.66,12.9,12.9,0,0,1-.08,1.52Z" transform="translate(-106.12 -104)"/></g></g></svg>