<svg id="Layer_1" data-name="Layer 1" xmlns="http://www.w3.org/2000/svg" viewBox="0 0 360.58 288"><defs><style>.cls-1,.cls-4{fill:#43756c;}.cls-2{fill:#9ec98a;}.cls-3,.cls-4{isolation:isolate;}.cls-4{font-size:62.2px;font-family:Avenir-Black, Avenir;font-weight:800;}</style></defs><g id="Group_269" data-name="Group 269"><g id="Group_41" data-name="Group 41"><path id="Path_1" data-name="Path 1" class="cls-1" d="M242.22,97.64a35.13,35.13,0,0,0-31.39,14.84,47.45,47.45,0,0,0-5.28,42.12,70.62,70.62,0,0,1,11.88-36.84A55.36,55.36,0,0,1,242.22,97.64Z" transform="translate(0.21 -38.58)"/><path id="Path_2" data-name="Path 2" class="cls-1" d="M155.93,234A177.31,177.31,0,0,0,144,173.7c-11-28-36.09-54-45.28-63,6.44,17.46,22.71,48.83,26.21,76.76A316.78,316.78,0,0,1,127.33,234Z" transform="translate(0.21 -38.58)"/><path id="Path_3" data-name="Path 3" class="cls-1" d="M204.08,234A176.84,176.84,0,0,1,216,173.7c10.95-28,36.08-54,45.27-63-6.44,17.46-22.71,48.83-26.21,76.76A316.78,316.78,0,0,0,232.67,234Z" transform="translate(0.21 -38.58)"/><path id="Path_4" data-name="Path 4" class="cls-2" d="M199.27,234a235.66,235.66,0,0,0-17.55-104.42c-19.05-47.43-45.9-77.81-61.43-91A364.84,364.84,0,0,1,155.39,143a367.36,367.36,0,0,1,4.39,91Z" transform="translate(0.21 -38.58)"/></g><g id="Healthscape" class="cls-3"><text class="cls-4" transform="translate(0 259.57)">Healthscape</text></g></g></svg>